<?xml version="1.0" encoding="iso-8859-1"?>
<!-- Generator: Adobe Illustrator 16.0.0, SVG Export Plug-In . SVG Version: 6.00 Build 0)  -->
<!DOCTYPE svg PUBLIC "-//W3C//DTD SVG 1.1//EN" "http://www.w3.org/Graphics/SVG/1.1/DTD/svg11.dtd">
<svg version="1.1" xmlns="http://www.w3.org/2000/svg" xmlns:xlink="http://www.w3.org/1999/xlink" x="0px" y="0px" width="433px"
	 height="433px" viewBox="0 0 433 433" style="enable-background:new 0 0 433 433;" xml:space="preserve">
<g id="Layer_3_copy" style="display:none;">
	<path style="display:inline;" d="M216-1C96.154-1-1,96.154-1,216s97.154,217,217,217s217-97.154,217-217S335.846-1,216-1z
		 M91.093,336.222c-11.074,7.989-27.815,1.938-34.205-8.969c-7.387-12.61-2.059-26.249,8.969-34.205
		c26.753-19.302,53.507-38.604,80.26-57.905c0-39.259,0-78.519,0-117.778c0-13.628,11.372-25,25-25s25,11.372,25,25
		c0,41.681,0,83.363,0,125.044c0,4.031,0.196,8.073-0.893,12.033c-2.362,8.587-9.006,13.149-15.648,17.942
		c-10.317,7.443-20.634,14.886-30.951,22.329C129.448,308.55,110.271,322.386,91.093,336.222z M326.347,252.024
		c-1.213,0.829-2.427,1.658-3.64,2.487c-39.604,27.071-79.21,54.143-118.814,81.214c-11.268,7.701-27.686,2.161-34.205-8.969
		c-7.255-12.385-2.258-26.531,8.969-34.205c1.213-0.829,2.427-1.658,3.64-2.487c39.604-27.071,79.21-54.143,118.814-81.214
		c11.268-7.701,27.686-2.161,34.205,8.969C342.57,230.204,337.573,244.351,326.347,252.024z M366.144,139.225
		c-0.094,0.065-0.188,0.13-0.282,0.194c-37.525,25.861-75.052,51.723-112.578,77.584c-11.239,7.745-27.705,2.127-34.205-8.969
		c-7.274-12.419-2.228-26.488,8.969-34.205c0.094-0.064,0.188-0.129,0.282-0.194c37.525-25.861,75.052-51.722,112.578-77.583
		c11.239-7.745,27.705-2.127,34.205,8.969C382.387,117.439,377.34,131.509,366.144,139.225z"/>
</g>
<g id="Layer_4_copy">
	<circle cx="222" cy="216" r="243"/>
</g>
<g id="Layer_3">
	<g>
		<g>
			<path style="fill:#FFFFFF;" d="M268.33,205.638c17.988-12.397,35.978-24.794,53.966-37.19
				c19.537-13.465,39.075-26.929,58.613-40.394c0.094-0.064,0.188-0.129,0.281-0.194c7.722-5.321,13.532-11.637,16.085-20.917
				c2.484-9.034,1.207-18.886-3.528-26.969c-4.583-7.824-12.169-13.678-20.917-16.085c-8.482-2.333-19.514-1.61-26.97,3.528
				c-17.988,12.397-35.978,24.794-53.966,37.191c-19.537,13.464-39.075,26.929-58.613,40.393c-0.094,0.065-0.188,0.13-0.281,0.194
				c-7.722,5.322-13.532,11.637-16.085,20.917c-2.484,9.034-1.207,18.887,3.528,26.97c4.583,7.824,12.169,13.679,20.917,16.085
				C249.843,211.499,260.874,210.775,268.33,205.638L268.33,205.638z"/>
		</g>
	</g>
	<g>
		<g>
			<path style="fill:#FFFFFF;" d="M208.939,354.36c17.324-11.842,34.647-23.683,51.972-35.524
				c22.326-15.261,44.652-30.521,66.979-45.782c1.168-0.798,2.335-1.597,3.503-2.395c7.729-5.283,13.539-11.664,16.085-20.917
				c2.484-9.034,1.207-18.887-3.528-26.97c-4.583-7.824-12.169-13.679-20.917-16.085c-8.511-2.341-19.48-1.591-26.97,3.528
				c-17.324,11.842-34.647,23.683-51.972,35.524c-22.326,15.261-44.652,30.521-66.979,45.782c-1.167,0.798-2.335,1.597-3.503,2.395
				c-7.729,5.283-13.54,11.664-16.085,20.917c-2.485,9.034-1.207,18.887,3.528,26.97c4.583,7.824,12.169,13.679,20.917,16.085
				C190.48,360.229,201.45,359.479,208.939,354.36L208.939,354.36z"/>
		</g>
	</g>
	<g>
		<g>
			<path style="fill:#FFFFFF;" d="M126.117,107.365c0,22.404,0,44.808,0,67.212c0,21.073,0,42.146,0,63.22
				c5.778-10.074,11.557-20.147,17.335-30.222c-19.254,13.891-38.508,27.782-57.761,41.673
				c-11.627,8.389-23.254,16.776-34.881,25.165c-2.361,1.824-4.723,3.648-7.083,5.473c-4.338,4.367-7.338,9.516-9.001,15.444
				c-2.485,9.034-1.207,18.887,3.528,26.97c4.583,7.824,12.168,13.679,20.917,16.085c8.32,2.288,19.7,1.716,26.969-3.528
				c19.254-13.891,38.508-27.782,57.761-41.673c10.293-7.426,20.585-14.852,30.878-22.277c1.088-0.785,2.177-1.57,3.265-2.355
				c0.218-0.157,0.437-0.314,0.654-0.472c0.028-0.021,0.056-0.041,0.084-0.061c2.361-1.824,4.723-3.648,7.084-5.473
				c4.338-4.367,7.338-9.516,9.001-15.444c1.142-4.152,1.25-6.188,1.25-9.327c0-2.162,0-4.324,0-6.485c0-28.785,0-57.57,0-86.355
				c0-12.522,0-25.046,0-37.569c0-19.079-15.921-35-35-35S126.117,88.286,126.117,107.365L126.117,107.365z"/>
		</g>
	</g>
</g>
</svg>
